# Blender 5.1.0
# www.blender.org
mtllib wall_l.mtl
o model_7.599
v 6.000000 2.000000 45.002186
v 6.000000 1.500000 45.022186
v 6.000000 2.000000 44.342182
v 6.000000 1.500000 44.044384
v 6.000000 1.000000 45.092186
v 6.000000 1.000000 43.843884
v 6.000000 0.500000 45.217186
v 6.000000 0.500000 43.637184
v 6.000000 -0.000000 43.442184
v 6.000000 0.000000 45.442184
vn -1.0000 -0.0000 0.0022
vt 0.813235 0.784584
vt 0.817091 0.784584
vt 0.813107 0.787475
vt 0.818829 0.787475
vt 0.812684 0.790366
vt 0.820016 0.790366
vt 0.811963 0.793377
vt 0.821245 0.793377
vt 0.822389 0.796268
vt 0.810649 0.796268
s 1
f 1/1/1 3/2/1 2/3/1
f 3/2/1 4/4/1 2/3/1
f 2/3/1 4/4/1 5/5/1
f 4/4/1 6/6/1 5/5/1
f 5/5/1 6/6/1 7/7/1
f 6/6/1 8/8/1 7/7/1
f 8/8/1 9/9/1 7/7/1
f 7/7/1 9/9/1 10/10/1
o model_7.600
v 8.000000 2.000000 44.342186
v 8.000000 1.500000 44.044388
v 10.000000 2.000000 44.342186
v 10.000000 1.500000 44.044384
vn -0.0037 0.5119 -0.8590
vn -0.0038 0.5119 -0.8590
vt 0.669815 0.959955
vt 0.669815 0.991512
vt 0.660660 0.959955
vt 0.660660 0.991512
s 1
f 11/11/2 13/12/2 12/13/3
f 12/13/3 13/12/2 14/14/3
o model_7.601
v 8.000000 1.000000 43.843876
v 8.000000 0.500000 43.637184
v 10.000000 1.000000 43.843876
v 10.000000 0.500000 43.637184
vn 0.0037 0.3832 -0.9237
vn 0.0038 0.3832 -0.9237
vt 0.652142 0.959955
vt 0.652142 0.991512
vt 0.643623 0.959955
vt 0.643623 0.991512
s 1
f 15/15/4 17/16/5 16/17/5
f 16/17/5 17/16/5 18/18/5
o model_7.602
v 8.000000 1.500000 44.044388
v 8.000000 1.000000 43.843876
v 10.000000 1.500000 44.044384
v 10.000000 1.000000 43.843876
vn -0.0000 0.3711 -0.9286
vn -0.0000 0.3710 -0.9286
vt 0.660660 0.959955
vt 0.660660 0.991512
vt 0.652142 0.959955
vt 0.652142 0.991512
s 1
f 19/19/6 21/20/6 20/21/7
f 20/21/7 21/20/6 22/22/6
o model_7.603
v 10.000000 -0.000000 43.442184
v 10.000000 0.500000 43.637184
v 8.000000 -0.000000 43.442184
v 8.000000 0.500000 43.637184
v 6.000000 -0.000000 43.442184
v 6.000000 0.500000 43.637184
vn 0.0038 0.3629 -0.9318
vn 0.0037 0.3629 -0.9318
vt 0.635189 0.991512
vt 0.635189 0.959955
vt 0.643623 0.991512
vt 0.643623 0.959955
vt 0.635189 0.928519
vt 0.643623 0.928519
s 1
f 23/23/8 25/24/8 24/25/9
f 24/25/9 25/24/8 26/26/8
f 25/24/8 27/27/8 26/26/8
f 26/26/8 27/27/8 28/28/8
o model_7.604
v 6.000000 1.500000 44.044384
v 6.000000 1.000000 43.843884
v 8.000000 1.500000 44.044388
v 8.000000 1.000000 43.843876
vn -0.0000 0.3712 -0.9286
vn -0.0000 0.3710 -0.9286
vn -0.0000 0.3711 -0.9286
vt 0.660660 0.928519
vt 0.660660 0.959955
vt 0.652142 0.928519
vt 0.652142 0.959955
s 1
f 29/29/10 31/30/11 30/31/11
f 30/31/11 31/30/11 32/32/12
o model_7.605
v 6.000000 1.000000 43.843884
v 6.000000 0.500000 43.637184
v 8.000000 1.000000 43.843876
v 8.000000 0.500000 43.637184
vn -0.0038 0.3832 -0.9237
vn -0.0037 0.3832 -0.9237
vt 0.652142 0.928519
vt 0.652142 0.959955
vt 0.643623 0.928519
vt 0.643623 0.959955
s 1
f 33/33/13 35/34/14 34/35/13
f 34/35/13 35/34/14 36/36/13
o model_7.606
v 6.000000 1.500000 44.044384
v 8.000000 1.500000 44.044388
v 6.000000 2.000000 44.342182
v 8.000000 2.000000 44.342186
vn 0.0038 0.5119 -0.8590
vn 0.0037 0.5119 -0.8590
vt 0.660660 0.928519
vt 0.669815 0.928519
vt 0.660660 0.959955
vt 0.669815 0.959955
s 1
f 37/37/15 39/38/15 38/39/15
f 38/39/15 39/38/15 40/40/16
o model_7.607
v 10.000000 -0.000000 43.442184
v 10.000000 0.000000 45.442184
v 10.000000 0.500000 43.637184
v 10.000000 1.000000 45.092186
v 10.000000 1.000000 43.843876
v 10.000000 0.500000 45.217186
v 10.000000 1.500000 45.022186
v 10.000000 1.500000 44.044384
v 10.000000 2.000000 45.002186
v 10.000000 2.000000 44.342186
vn 1.0000 -0.0000 0.0022
vt 0.822474 0.803495
vt 0.821329 0.806506
vt 0.810734 0.803495
vt 0.812090 0.806506
vt 0.812811 0.809397
vt 0.820143 0.809397
vt 0.813235 0.812408
vt 0.818956 0.812408
vt 0.813319 0.815298
vt 0.817218 0.815298
s 1
f 41/41/17 43/42/17 42/43/17
f 42/43/17 43/42/17 46/44/17
f 46/44/17 43/42/17 44/45/17
f 43/42/17 45/46/17 44/45/17
f 44/45/17 45/46/17 47/47/17
f 45/46/17 48/48/17 47/47/17
f 47/47/17 48/48/17 49/49/17
f 48/48/17 50/50/17 49/49/17
o model_7.608
v 10.000000 2.000000 44.342186
v 10.000000 2.000000 45.002186
v 8.000000 2.000000 44.342186
v 6.000000 2.000000 45.002186
v 6.000000 2.000000 44.342182
v 8.000000 2.000000 45.002186
vn -0.0000 1.0000 0.0022
vt 0.868712 0.768204
vt 0.868712 0.713762
vt 0.886682 0.768204
vt 0.886682 0.713762
vt 0.886682 0.659440
vt 0.868712 0.659440
s 1
f 51/51/18 53/52/18 52/53/18
f 56/54/18 53/52/18 54/55/18
f 53/52/18 55/56/18 54/55/18
f 52/53/18 53/52/18 56/54/18
o model_7.609
v 6.000000 0.000000 45.442184
v 6.000000 0.500000 45.217186
v 8.000000 0.000000 45.442184
v 8.000000 0.500000 45.217186
v 10.000000 0.000000 45.442184
v 10.000000 0.500000 45.217186
vn -0.0018 0.4112 0.9115
vt 0.708933 0.533453
vt 0.708933 0.269192
vt 0.781406 0.533453
vt 0.781406 0.269192
vt 0.708933 0.004931
vt 0.781406 0.004931
s 1
f 57/57/19 59/58/19 58/59/19
f 58/59/19 59/58/19 60/60/19
f 59/58/19 61/61/19 60/60/19
f 60/60/19 61/61/19 62/62/19
o model_7.610
v 8.000000 2.000000 45.002186
v 10.000000 2.000000 45.002186
v 8.000000 1.500000 45.022186
v 10.000000 1.500000 45.022186
vn 0.0036 0.0391 0.9992
vt 0.982338 0.269192
vt 0.916222 0.269192
vt 0.982338 0.004931
vt 0.916222 0.004931
s 1
f 63/63/20 65/64/20 64/65/20
f 64/65/20 65/64/20 66/66/20
o model_7.611
v 10.000000 0.500000 45.217186
v 8.000000 0.500000 45.217186
v 10.000000 1.000000 45.092186
v 8.000000 1.000000 45.092186
v 6.000000 0.500000 45.217186
v 6.000000 1.000000 45.092186
vn -0.0018 0.2423 0.9702
vn -0.0019 0.2422 0.9702
vn -0.0018 0.2422 0.9702
vt 0.781406 0.004931
vt 0.849513 0.004931
vt 0.781406 0.269192
vt 0.849513 0.269192
vt 0.781406 0.533453
vt 0.849513 0.533453
s 1
f 67/67/21 69/68/22 68/69/23
f 69/68/22 70/70/23 68/69/23
f 68/69/23 70/70/23 71/71/22
f 70/70/23 72/72/21 71/71/22
o model_7.612
v 6.000000 2.000000 45.002186
v 8.000000 2.000000 45.002186
v 6.000000 1.500000 45.022186
v 8.000000 1.500000 45.022186
vn -0.0036 0.0391 0.9992
vt 0.982338 0.533573
vt 0.916222 0.533453
vt 0.982338 0.269192
vt 0.916222 0.269192
s 1
f 73/73/24 75/74/24 74/75/24
f 75/74/24 76/76/24 74/75/24
o model_7.613
v 10.000000 1.000000 45.092186
v 8.000000 1.000000 45.092186
v 10.000000 1.500000 45.022186
v 8.000000 1.500000 45.022186
v 6.000000 1.000000 45.092186
v 6.000000 1.500000 45.022186
vn 0.0018 0.1393 0.9902
vn 0.0019 0.1394 0.9902
vt 0.849513 0.004931
vt 0.916222 0.004931
vt 0.849513 0.269192
vt 0.916222 0.269192
vt 0.849513 0.533453
vt 0.916222 0.533453
s 1
f 77/77/25 79/78/26 78/79/25
f 79/78/26 80/80/25 78/79/25
f 78/79/25 80/80/25 81/81/26
f 80/80/25 82/82/25 81/81/26
