# Blender 5.1.0
# www.blender.org
mtllib wall_corner_l.mtl
o model_7.153
v 13.000000 -0.000000 43.442184
v 13.195000 0.500000 43.637184
v 13.000000 0.500000 43.637184
vn 0.0038 0.3629 -0.9318
vt 0.619096 0.932104
vt 0.609741 0.932104
vt 0.609741 0.928635
s 1
f 1/1/1 3/2/1 2/3/1
o model_7.154
v 13.000000 -0.000000 43.442184
v 13.195000 0.500000 43.442184
v 13.195000 0.500000 43.637184
vn -0.9323 0.3617 0.0021
vt 0.581032 0.858172
vt 0.590387 0.854702
vt 0.590387 0.858172
s 1
f 4/4/2 6/5/2 5/6/2
o model_7.155
v 14.580000 1.500000 44.994083
v 14.580000 1.500000 45.022186
v 14.559999 2.000000 45.002186
vn 0.9993 0.0378 0.0022
vt 0.093836 0.088459
vt 0.097492 0.023380
vt 0.097492 0.088579
s 1
f 7/7/3 9/8/3 8/9/3
o model_7.156
v 14.559999 2.000000 45.002186
v 14.580000 1.500000 45.022186
v 14.546163 1.500000 45.022186
vn 0.0036 0.0391 0.9992
vt 0.109535 0.026370
vt 0.113943 0.091570
vt 0.109535 0.091689
s 1
f 10/10/4 12/11/4 11/12/4
o model_7.157
v 14.560000 2.000000 41.442184
v 14.559999 2.000000 45.002186
v 13.900001 2.000000 41.442184
v 13.900000 2.000000 43.442184
v 13.900000 2.000000 44.342186
v 13.000000 2.000000 44.342186
v 11.000000 2.000000 45.002186
v 11.000000 2.000000 44.342186
vn -0.0000 1.0000 0.0022
vt 0.898446 0.549760
vt 0.898446 0.567825
vt 0.800921 0.549760
vt 0.843716 0.567825
vt 0.818985 0.567825
vt 0.818985 0.592469
vt 0.800921 0.647260
vt 0.818985 0.647260
s 1
f 13/13/5 15/14/5 14/15/5
f 15/14/5 16/16/5 14/15/5
f 16/16/5 17/17/5 14/15/5
f 17/17/5 18/18/5 14/15/5
f 14/15/5 18/18/5 19/19/5
f 18/18/5 20/20/5 19/19/5
o model_7.158
v 11.000000 0.500000 43.637184
v 11.000000 -0.000000 43.442184
v 13.000000 0.500000 43.637184
v 13.000000 -0.000000 43.442184
vn -0.0038 0.3629 -0.9318
vt 0.609741 0.966917
vt 0.609741 0.932104
vt 0.619096 0.966917
vt 0.619096 0.932104
s 1
f 21/21/6 23/22/6 22/23/6
f 23/22/6 24/24/6 22/23/6
o model_7.159
v 11.000000 1.500000 44.044388
v 11.000000 1.000000 43.843876
v 13.000000 1.500000 44.044388
v 13.000000 1.000000 43.843876
vn -0.0000 0.3710 -0.9286
vn -0.0000 0.3711 -0.9286
vt 0.590924 0.966917
vt 0.590924 0.932104
vt 0.600279 0.966917
vt 0.600279 0.932104
s 1
f 25/25/7 27/26/8 26/27/8
f 27/26/8 28/28/7 26/27/8
o model_7.160
v 11.000000 1.000000 43.843876
v 11.000000 0.500000 43.637184
v 13.000000 1.000000 43.843876
v 13.000000 0.500000 43.637184
vn 0.0038 0.3832 -0.9237
vt 0.600279 0.966917
vt 0.600279 0.932104
vt 0.609741 0.966917
vt 0.609741 0.932104
s 1
f 29/29/9 31/30/9 30/31/9
f 31/30/9 32/32/9 30/31/9
o model_7.161
v 11.000000 2.000000 44.342186
v 11.000000 1.500000 44.044388
v 13.000000 2.000000 44.342186
v 13.000000 1.500000 44.044388
vn -0.0038 0.5119 -0.8590
vn -0.0037 0.5119 -0.8590
vt 0.580710 0.966917
vt 0.580710 0.932104
vt 0.590924 0.966917
vt 0.590924 0.932104
s 1
f 33/33/10 35/34/10 34/35/10
f 35/34/10 36/36/11 34/35/10
o model_7.162
v 13.401700 1.000000 43.843876
v 13.000000 1.000000 43.843876
v 13.195000 0.500000 43.637184
v 13.000000 0.500000 43.637184
vn 0.0038 0.3832 -0.9237
vt 0.600279 0.925046
vt 0.609741 0.928635
vt 0.600279 0.932104
vt 0.609741 0.932104
s 1
f 37/37/12 39/38/12 38/39/12
f 39/38/12 40/40/12 38/39/12
o model_7.163
v 13.602200 1.500000 44.044388
v 13.000000 1.500000 44.044388
v 13.401700 1.000000 43.843876
v 13.000000 1.000000 43.843876
vn -0.0000 0.3710 -0.9286
vn -0.0000 0.3711 -0.9286
vt 0.590924 0.921577
vt 0.600279 0.925046
vt 0.590924 0.932104
vt 0.600279 0.932104
s 1
f 41/41/13 43/42/14 42/43/13
f 43/42/14 44/44/13 42/43/13
o model_7.164
v 13.602200 1.500000 44.044388
v 13.900000 2.000000 44.342186
v 13.000000 1.500000 44.044388
v 13.000000 2.000000 44.342186
vn 0.0038 0.5119 -0.8590
vt 0.590924 0.921577
vt 0.590924 0.932104
vt 0.580710 0.916432
vt 0.580710 0.932104
s 1
f 45/45/15 47/46/15 46/47/15
f 47/46/15 48/48/15 46/47/15
o model_7.165
v 15.000000 0.008710 45.010239
v 14.775000 0.500000 45.004917
v 15.000000 -0.000000 41.442184
v 14.775001 0.500000 41.442184
vn 0.9119 0.4104 -0.0022
vn 0.9119 0.4104 -0.0021
vt 0.270715 0.992279
vt 0.269747 0.517460
vt 0.342649 0.991561
vt 0.342649 0.517460
s 1
f 49/49/16 51/50/17 50/51/16
f 51/50/17 52/52/16 50/51/16
o model_7.166
v 13.195000 0.500000 43.442184
v 13.000000 -0.000000 43.442184
v 13.195001 0.500000 41.442184
v 13.000000 -0.000000 41.442184
vn -0.9323 0.3617 -0.0021
vn -0.9323 0.3617 -0.0022
vt 0.590387 0.858172
vt 0.590387 0.892985
vt 0.581032 0.858172
vt 0.581032 0.892985
s 1
f 53/53/18 55/54/18 54/55/19
f 55/54/18 56/56/18 54/55/19
o model_7.167
v 13.602200 1.500000 43.442184
v 13.401700 1.000000 43.442184
v 13.602201 1.500000 41.442184
v 13.401701 1.000000 41.442184
vn -0.9296 0.3687 -0.0022
vt 0.609204 0.858172
vt 0.609204 0.892985
vt 0.599741 0.858172
vt 0.599741 0.892985
s 1
f 57/57/20 59/58/20 58/59/20
f 59/58/20 60/60/20 58/59/20
o model_7.168
v 13.401700 1.000000 43.442184
v 13.195000 0.500000 43.442184
v 13.401701 1.000000 41.442184
v 13.195001 0.500000 41.442184
vn -0.9239 0.3827 -0.0021
vn -0.9239 0.3827 -0.0022
vt 0.599741 0.858172
vt 0.599741 0.892985
vt 0.590387 0.858172
vt 0.590387 0.892985
s 1
f 61/61/21 63/62/22 62/63/22
f 63/62/22 64/64/21 62/63/22
o model_7.169
v 13.900000 2.000000 43.442184
v 13.602200 1.500000 43.442184
v 13.900001 2.000000 41.442184
v 13.602201 1.500000 41.442184
vn -0.8597 0.5109 -0.0022
vn -0.8597 0.5109 -0.0021
vt 0.619311 0.858172
vt 0.619311 0.892985
vt 0.609204 0.858172
vt 0.609204 0.892985
s 1
f 65/65/23 67/66/24 66/67/23
f 67/66/24 68/68/24 66/67/23
o model_7.171
v 13.401700 1.000000 43.843876
v 13.401700 1.000000 43.442184
v 13.602200 1.500000 44.044388
v 13.602200 1.500000 43.442184
vn -0.9296 0.3687 0.0022
vn -0.9295 0.3687 0.0022
vt 0.599741 0.851113
vt 0.609204 0.847644
vt 0.599741 0.858172
vt 0.609204 0.858172
s 1
f 69/69/25 71/70/26 70/71/25
f 71/70/26 72/72/25 70/71/25
o model_7.172
v 13.602200 1.500000 44.044388
v 13.602200 1.500000 43.442184
v 13.900000 2.000000 44.342186
v 13.900000 2.000000 43.442184
vn -0.8597 0.5109 0.0021
vn -0.8597 0.5109 0.0022
vt 0.609204 0.847644
vt 0.619311 0.842500
vt 0.609204 0.858172
vt 0.619311 0.858172
s 1
f 73/73/27 75/74/27 74/75/27
f 75/74/27 76/76/28 74/75/27
o model_7.173
v 14.555415 1.000000 45.092186
v 11.000000 1.000000 45.092186
v 14.546163 1.500000 45.022186
v 11.000000 1.500000 45.022186
vn 0.0017 0.1393 0.9902
vn 0.0018 0.1393 0.9902
vt 0.408347 0.014766
vt 0.475550 0.016082
vt 0.408347 0.488030
vt 0.475550 0.488030
s 1
f 77/77/29 79/78/30 78/79/30
f 79/78/30 80/80/30 78/79/30
o model_7.174
v 14.580000 1.500000 44.994083
v 14.650000 1.000000 44.999500
v 14.580000 1.500000 45.022186
v 14.650000 1.000000 45.092186
vn 0.9908 0.1356 0.0022
vn 0.9908 0.1355 0.0022
vt 0.047278 0.053288
vt 0.050934 0.053288
vt 0.047278 0.119085
vt 0.059428 0.119205
s 1
f 81/81/31 83/82/32 82/83/32
f 83/82/32 84/84/32 82/83/32
o model_7.175
v 14.775000 0.500000 45.004917
v 14.650000 1.000000 44.999500
v 14.775001 0.500000 41.442184
v 14.650001 1.000000 41.442184
vn 0.9709 0.2393 0.0022
vn 0.9709 0.2394 0.0021
vt 0.342649 0.991561
vt 0.342649 0.517460
vt 0.411250 0.990844
vt 0.411250 0.517460
s 1
f 85/85/33 87/86/34 86/87/33
f 87/86/34 88/88/33 86/87/33
o model_7.176
v 14.573756 0.008739 45.442184
v 14.564666 0.500000 45.217186
v 15.000000 0.009756 45.442184
v 14.775000 0.500000 45.217186
vn -0.0018 0.4153 0.9097
vn -0.0019 0.4153 0.9097
vn -0.0019 0.4152 0.9097
vt 0.073299 0.274248
vt 0.017709 0.275085
vt 0.073299 0.203904
vt 0.045880 0.204383
s 1
f 89/89/35 91/90/36 90/91/37
f 91/90/36 92/92/37 90/91/37
o model_7.177
v 14.555415 1.000000 45.092186
v 14.546163 1.500000 45.022186
v 14.650000 1.000000 45.092186
v 14.580000 1.500000 45.022186
vn 0.0019 0.1394 0.9902
vn 0.0018 0.1393 0.9902
vt 0.037923 0.118966
vt 0.025665 0.119205
vt 0.037923 0.053168
vt 0.033515 0.053288
s 1
f 93/93/38 95/94/39 94/95/39
f 95/94/39 96/96/39 94/95/39
o model_7.178
v 14.564666 0.500000 45.217186
v 14.555415 1.000000 45.092186
v 14.775000 0.500000 45.217186
v 14.650000 1.000000 45.092186
vn -0.0018 0.2423 0.9702
vn -0.0018 0.2422 0.9702
vn -0.0019 0.2422 0.9702
vt 0.076740 0.195171
vt 0.049321 0.195650
vt 0.076740 0.128058
vt 0.064374 0.128177
s 1
f 97/97/40 99/98/41 98/99/41
f 99/98/41 100/100/42 98/99/41
o model_7.179
v 11.000000 0.000000 45.442184
v 11.000000 -0.000000 43.442184
v 11.000000 0.500000 45.217186
v 11.000000 0.500000 43.637184
v 11.000000 1.000000 43.843876
v 11.000000 1.000000 45.092186
v 11.000000 1.500000 45.022186
v 11.000000 1.500000 44.044388
v 11.000000 2.000000 44.342186
v 11.000000 2.000000 45.002186
vn -1.0000 -0.0000 0.0022
vt 0.865221 0.805773
vt 0.861457 0.804098
vt 0.865221 0.791058
vt 0.861457 0.792494
vt 0.857801 0.794049
vt 0.857801 0.803261
vt 0.854146 0.802662
vt 0.854146 0.795484
vt 0.850490 0.797758
vt 0.850490 0.802543
s 1
f 101/101/43 103/102/43 102/103/43
f 102/103/43 103/102/43 104/104/43
f 104/104/43 103/102/43 105/105/43
f 103/102/43 106/106/43 105/105/43
f 106/106/43 107/107/43 105/105/43
f 105/105/43 107/107/43 108/108/43
f 108/108/43 107/107/43 109/109/43
f 107/107/43 110/110/43 109/109/43
o model_7.180
v 15.000000 0.009756 45.442184
v 14.775000 0.500000 45.217186
v 15.000000 0.008710 45.010239
v 14.775000 0.500000 45.004917
vn 0.9088 0.4173 -0.0022
vt 0.137922 0.276760
vt 0.081686 0.276282
vt 0.109320 0.206177
vt 0.081686 0.205818
s 1
f 111/111/44 113/112/44 112/113/44
f 113/112/44 114/114/44 112/113/44
o model_7.181
v 14.775000 0.500000 45.217186
v 14.650000 1.000000 45.092186
v 14.775000 0.500000 45.004917
v 14.650000 1.000000 44.999500
vn 0.9709 0.2393 0.0022
vn 0.9709 0.2394 0.0021
vt 0.110180 0.193137
vt 0.082546 0.192778
vt 0.094589 0.125785
vt 0.082546 0.125665
s 1
f 115/115/45 117/116/45 116/117/46
f 117/116/45 118/118/45 116/117/46
o model_7.182
v 14.580000 1.500000 44.994083
v 14.580001 1.500000 41.442184
v 14.650000 1.000000 44.999500
v 14.650001 1.000000 41.442184
vn 0.9908 0.1355 0.0022
vn 0.9908 0.1356 0.0022
vt 0.478453 0.990126
vt 0.411250 0.990844
vt 0.478453 0.517460
vt 0.411250 0.517460
s 1
f 119/119/47 121/120/48 120/121/48
f 121/120/48 122/122/47 120/121/48
o model_7.183
v 14.560000 2.000000 41.442184
v 14.580001 1.500000 41.442184
v 14.559999 2.000000 45.002186
v 14.580000 1.500000 44.994083
vn 0.9993 0.0378 0.0022
vt 0.545011 0.517460
vt 0.545011 0.991202
vt 0.478453 0.517460
vt 0.478453 0.990126
s 1
f 123/123/49 125/124/49 124/125/49
f 125/124/49 126/126/49 124/125/49
o model_7.184
v 14.573756 0.008739 45.442184
v 11.000000 0.000000 45.442184
v 14.564666 0.500000 45.217186
v 11.000000 0.500000 45.217186
vn -0.0019 0.4152 0.9097
vn -0.0018 0.4153 0.9097
vt 0.267919 0.012373
vt 0.339746 0.013570
vt 0.266844 0.488030
vt 0.339746 0.488030
s 1
f 127/127/50 129/128/51 128/129/50
f 129/128/51 130/130/50 128/129/50
o model_7.185
v 14.564666 0.500000 45.217186
v 11.000000 0.500000 45.217186
v 14.555415 1.000000 45.092186
v 11.000000 1.000000 45.092186
vn -0.0018 0.2423 0.9702
vt 0.339746 0.013570
vt 0.408347 0.014766
vt 0.339746 0.488030
vt 0.408347 0.488030
s 1
f 131/131/52 133/132/52 132/133/52
f 133/132/52 134/134/52 132/133/52
o model_7.186
v 14.546163 1.500000 45.022186
v 11.000000 1.500000 45.022186
v 14.559999 2.000000 45.002186
v 11.000000 2.000000 45.002186
vn 0.0036 0.0391 0.9992
vt 0.475550 0.016082
vt 0.542216 0.014168
vt 0.475550 0.488030
vt 0.542216 0.488030
s 1
f 135/135/53 137/136/53 136/137/53
f 137/136/53 138/138/53 136/137/53
o model_7.187
v 14.560000 2.000000 41.442184
v 13.900001 2.000000 41.442184
v 14.580001 1.500000 41.442184
v 13.602201 1.500000 41.442184
vn -0.0000 -0.0000 -1.0000
vt 0.843716 0.803141
vt 0.839952 0.803261
vt 0.843716 0.798356
vt 0.839952 0.796083
s 1
f 139/139/54 141/140/54 140/141/54
f 141/140/54 142/142/54 140/141/54
o model_7.188
v 14.580001 1.500000 41.442184
v 13.602201 1.500000 41.442184
v 14.650001 1.000000 41.442184
v 13.401701 1.000000 41.442184
vn -0.0000 -0.0000 -1.0000
vt 0.839952 0.803261
vt 0.836296 0.803859
vt 0.839952 0.796083
vt 0.836296 0.794647
s 1
f 143/143/55 145/144/55 144/145/55
f 145/144/55 146/146/55 144/145/55
o model_7.189
v 14.650001 1.000000 41.442184
v 13.401701 1.000000 41.442184
v 14.775001 0.500000 41.442184
v 13.195001 0.500000 41.442184
vn -0.0000 -0.0000 -1.0000
vt 0.836296 0.803859
vt 0.832641 0.804696
vt 0.836296 0.794647
vt 0.832641 0.793092
s 1
f 147/147/56 149/148/56 148/149/56
f 149/148/56 150/150/56 148/149/56
o model_7.190
v 14.775001 0.500000 41.442184
v 13.195001 0.500000 41.442184
v 15.000000 -0.000000 41.442184
v 13.000000 -0.000000 41.442184
vn -0.0000 -0.0000 -1.0000
vt 0.832641 0.804696
vt 0.828985 0.806371
vt 0.832641 0.793092
vt 0.828985 0.791656
s 1
f 151/151/57 153/152/57 152/153/57
f 153/152/57 154/154/57 152/153/57
