# Blender 5.1.0
# www.blender.org
mtllib wall_m.mtl
o model_7.956
v 24.000000 1.000000 49.092186
v 24.000000 1.000000 47.812183
v 24.000000 0.500000 49.217186
v 24.000000 0.500000 47.637184
vn 1.0000 -0.0000 0.0022
vt 0.840052 0.803778
vt 0.835650 0.804909
vt 0.840052 0.792530
vt 0.835650 0.791004
s 1
f 1/1/1 3/2/1 2/3/1
f 3/2/1 4/4/1 2/3/1
o model_7.957
v 24.000000 0.000000 47.442184
v 24.000000 0.000000 49.442184
v 24.000000 0.500000 47.637184
v 24.000000 0.500000 49.217186
vn 1.0000 -0.0000 0.0022
vt 0.831249 0.789252
vt 0.835650 0.791004
vt 0.831249 0.806887
vt 0.835650 0.804909
s 1
f 5/5/2 7/6/2 6/7/2
f 7/6/2 8/8/2 6/7/2
o model_7.958
v 24.000000 1.000000 47.812183
v 24.000000 1.000000 49.092186
v 22.000000 1.000000 47.812183
v 22.000000 1.000000 49.092186
v 20.000000 1.000000 47.812183
v 20.000000 1.000000 49.092186
vn -0.0000 1.0000 0.0022
vt 0.733561 0.791796
vt 0.733561 0.820509
vt 0.715174 0.791796
vt 0.715174 0.820509
vt 0.733561 0.849280
vt 0.715174 0.849280
s 1
f 9/9/3 11/10/3 10/11/3
f 10/11/3 11/10/3 12/12/3
f 11/10/3 13/13/3 12/12/3
f 12/12/3 13/13/3 14/14/3
o model_7.959
v 22.000000 1.000000 47.812183
v 22.000000 0.500000 47.637184
v 24.000000 1.000000 47.812183
v 24.000000 0.500000 47.637184
vn 0.0038 0.3301 -0.9439
vt 0.659799 0.972727
vt 0.659799 0.942148
vt 0.667892 0.972727
vt 0.667892 0.942148
s 1
f 15/15/4 17/16/4 16/17/4
f 16/17/4 17/16/4 18/18/4
o model_7.960
v 22.000000 0.500000 47.637184
v 22.000000 0.000000 47.442184
v 24.000000 0.500000 47.637184
v 24.000000 0.000000 47.442184
vn 0.0038 0.3629 -0.9318
vt 0.659373 0.958426
vt 0.659373 0.927847
vt 0.667537 0.958426
vt 0.667537 0.927847
s 1
f 19/19/5 21/20/5 20/21/5
f 20/21/5 21/20/5 22/22/5
o model_7.961
v 20.000000 1.000000 47.812183
v 20.000000 0.500000 47.637184
v 22.000000 1.000000 47.812183
v 22.000000 0.500000 47.637184
vn 0.0038 0.3301 -0.9439
vt 0.646310 0.988723
vt 0.646310 0.957296
vt 0.654687 0.988723
vt 0.654687 0.957296
s 1
f 23/23/6 25/24/6 24/25/6
f 24/25/6 25/24/6 26/26/6
o model_7.962
v 20.000000 0.500000 47.637184
v 20.000000 0.000000 47.442184
v 22.000000 0.500000 47.637184
v 22.000000 0.000000 47.442184
vn 0.0038 0.3629 -0.9318
vt 0.659373 0.989005
vt 0.659373 0.958426
vt 0.667537 0.989005
vt 0.667537 0.958426
s 1
f 27/27/7 29/28/7 28/29/7
f 28/29/7 29/28/7 30/30/7
o model_7.963
v 22.000000 1.000000 49.092186
v 22.000000 0.500000 49.217186
v 20.000000 1.000000 49.092186
v 20.000000 0.500000 49.217186
vn -0.0018 0.2423 0.9702
vn -0.0019 0.2422 0.9702
vt 0.401026 0.754321
vt 0.401026 0.978605
vt 0.343237 0.754321
vt 0.343237 0.978605
s 1
f 31/31/8 33/32/9 32/33/9
f 32/33/9 33/32/9 34/34/8
o model_7.964
v 22.000000 0.500000 49.217186
v 22.000000 0.000000 49.442184
v 20.000000 0.500000 49.217186
v 20.000000 0.000000 49.442184
vn -0.0019 0.4112 0.9115
vn -0.0018 0.4112 0.9115
vt 0.343237 0.754321
vt 0.343237 0.978605
vt 0.281756 0.754321
vt 0.281756 0.978605
s 1
f 35/35/10 37/36/11 36/37/11
f 36/37/11 37/36/11 38/38/11
o model_7.965
v 22.000000 1.000000 49.092186
v 24.000000 1.000000 49.092186
v 22.000000 0.500000 49.217186
v 24.000000 0.500000 49.217186
vn -0.0018 0.2423 0.9702
vn -0.0019 0.2422 0.9702
vt 0.402162 0.753190
vt 0.343592 0.753190
vt 0.402162 0.526023
vt 0.343592 0.526023
s 1
f 39/39/12 41/40/13 40/41/13
f 40/41/13 41/40/13 42/42/12
o model_7.966
v 24.000000 0.500000 49.217186
v 24.000000 0.000000 49.442184
v 22.000000 0.500000 49.217186
v 22.000000 0.000000 49.442184
vn -0.0019 0.4112 0.9115
vn -0.0018 0.4112 0.9115
vt 0.343592 0.526023
vt 0.343592 0.753190
vt 0.281330 0.526023
vt 0.281330 0.753190
s 1
f 43/43/14 45/44/15 44/45/15
f 44/45/15 45/44/15 46/46/15
o model_7.967
v 20.000000 1.000000 49.092186
v 20.000000 0.500000 49.217186
v 20.000000 1.000000 47.812183
v 20.000000 0.500000 47.637184
v 20.000000 0.000000 47.442184
v 20.000000 0.000000 49.442184
vn -1.0000 -0.0000 0.0022
vt 0.854038 0.802705
vt 0.854038 0.791456
vt 0.858439 0.803835
vt 0.858439 0.789874
vt 0.862841 0.788178
vt 0.862841 0.805813
s 1
f 47/47/16 49/48/16 48/49/16
f 49/48/16 50/50/16 48/49/16
f 50/50/16 51/51/16 48/49/16
f 48/49/16 51/51/16 52/52/16
