# Blender 5.1.0
# www.blender.org
mtllib water_canal.mtl
o model_7.1136
v 23.000000 0.000001 54.108849
v 21.000000 0.000001 54.108849
v 23.000000 -0.799999 53.775517
v 21.000000 -0.799999 53.775517
vn 0.0038 0.3832 -0.9237
vt 0.892185 0.618912
vt 0.892185 0.633018
vt 0.859935 0.618912
vt 0.859935 0.633018
s 1
f 1/1/1 3/2/1 2/3/1
f 3/2/1 4/4/1 2/3/1
o model_7.1137
v 23.000000 0.000001 54.442184
v 21.000000 0.000001 54.442184
v 23.000000 0.000001 54.108849
v 21.000000 0.000001 54.108849
v 19.000000 0.000001 54.108845
v 19.000000 0.000001 54.442184
vn -0.0000 1.0000 0.0022
vt 0.765668 0.583409
vt 0.779150 0.583409
vt 0.765668 0.664576
vt 0.779150 0.664576
vt 0.779150 0.745743
vt 0.765668 0.745743
s 1
f 5/5/2 7/6/2 6/7/2
f 7/6/2 8/8/2 6/7/2
f 8/8/2 9/9/2 6/7/2
f 6/7/2 9/9/2 10/10/2
o model_7.1138
v 21.000000 0.000001 54.108849
v 19.000000 0.000001 54.108845
v 21.000000 -0.799999 53.775517
v 19.000000 -0.799999 53.775517
vn 0.0038 0.3832 -0.9237
vt 0.859935 0.618912
vt 0.859935 0.633018
vt 0.827578 0.618912
vt 0.827578 0.633018
s 1
f 11/11/3 13/12/3 12/13/3
f 12/13/3 13/12/3 14/14/3
o model_7.1139
v 19.000000 -0.799999 53.775517
v 19.000000 -0.800000 50.742184
v 21.000000 -0.799999 53.775517
v 23.000000 -0.800000 50.742184
v 23.000000 -0.799999 53.775517
v 21.000000 -0.800000 50.742184
vn -0.0000 1.0000 0.0022
vt 0.008720 0.983506
vt 0.008720 0.937842
vt 0.077857 0.983506
vt 0.077857 0.937842
vt 0.077857 0.892298
vt 0.008720 0.892298
s 1
f 15/15/4 17/16/4 16/17/4
f 20/18/4 17/16/4 18/19/4
f 17/16/4 19/20/4 18/19/4
f 16/17/4 17/16/4 20/18/4
o model_7.1140
v 19.000000 -0.800000 50.742184
v 19.000000 0.000000 50.442184
v 21.000000 -0.800000 50.742184
v 21.000000 0.000000 50.442184
v 23.000000 -0.800000 50.742184
v 23.000000 0.000000 50.442184
vn 0.0019 0.3507 0.9365
vn 0.0018 0.3507 0.9365
vt 0.586408 0.533083
vt 0.586408 0.268783
vt 0.697501 0.533083
vt 0.697501 0.268783
vt 0.586408 0.004362
vt 0.697501 0.004362
s 1
f 21/21/5 23/22/5 22/23/6
f 22/23/6 23/22/5 24/24/5
f 23/22/5 25/25/5 24/24/5
f 24/24/5 25/25/5 26/26/5
o model_7.1142
v 23.000000 -0.800000 50.742184
v 23.000000 0.000000 50.442184
v 23.000000 -0.800000 50.722183
v 23.000000 0.000000 50.422184
vn 1.0000 -0.0000 0.0022
vt 0.612725 0.748612
vt 0.612725 0.749210
s 1
f 27/27/7 29/27/7 28/28/7
f 29/27/7 30/28/7 28/28/7
o model_7.1143
v 19.000000 0.000000 50.442184
v 19.000000 -0.800000 50.742184
v 19.000000 0.000000 50.422184
v 19.000000 -0.800000 50.722183
vn -1.0000 -0.0000 0.0022
vt 0.611862 0.751601
vt 0.611431 0.752079
s 1
f 31/29/8 33/29/8 32/30/8
f 33/29/8 34/30/8 32/30/8
