# Blender 5.1.0
# www.blender.org
mtllib water_corner.mtl
o model_7.505
v 2.666667 -0.799999 53.775524
v 5.700000 -0.800000 50.742184
v 6.000000 -0.799999 53.775524
v 6.048816 -0.800000 50.742184
v 2.666660 -0.800000 50.442184
v 5.700000 -0.800000 50.442184
v 2.666667 -0.800000 46.442184
v 5.700000 -0.800000 46.442184
vn -0.0000 1.0000 0.0022
vt 0.013894 0.771844
vt 0.058095 0.771844
vt 0.054114 0.812128
vt 0.058810 0.812128
vt 0.054114 0.816050
vt 0.013894 0.816050
vt 0.013894 0.869168
vt 0.054114 0.869168
s 1
f 1/1/1 3/2/1 2/3/1
f 3/2/1 4/4/1 2/3/1
f 2/3/1 6/5/1 5/6/1
f 5/6/1 6/5/1 7/7/1
f 6/5/1 8/8/1 7/7/1
o model_7.506
v 2.666667 -0.799999 53.775524
v 2.333334 0.000001 54.108845
v 2.333334 0.000001 53.775524
vn 0.9239 0.3827 0.0022
vn 0.9239 0.3827 0.0021
vt 0.850047 0.677848
vt 0.838410 0.677848
vt 0.841575 0.673333
s 1
f 9/9/2 11/10/2 10/11/3
o model_7.507
v 2.666660 0.000001 54.108845
v 2.333334 0.000001 54.108845
v 2.666667 -0.799999 53.775524
vn 0.0038 0.3832 -0.9237
vt 0.809112 0.756277
vt 0.820750 0.756277
vt 0.811869 0.779331
s 1
f 12/12/4 14/13/4 13/14/4
o model_7.508
v 5.700000 -0.800000 50.742184
v 6.000000 0.000000 50.442184
v 6.048816 -0.800000 50.742184
vn 0.0019 0.3507 0.9365
vn 0.0018 0.3507 0.9365
vt 0.071366 0.396929
vt 0.031860 0.383026
vt 0.071366 0.288317
s 1
f 15/15/5 17/16/5 16/17/6
o model_7.509
v 2.666660 -0.800000 50.442184
v 5.700000 -0.800000 50.742184
v 2.666667 -0.799999 53.775524
vn -0.0000 1.0000 0.0022
vt 0.013894 0.816050
vt 0.013894 0.771844
vt 0.054114 0.812128
s 1
f 18/18/7 20/19/7 19/20/7
o model_7.510
v 6.000000 0.000000 50.442184
v 5.700000 -0.800000 50.742184
v 5.700000 -0.800000 50.442184
vn -0.9350 0.3546 0.0022
vt 0.081064 0.286653
vt 0.115057 0.383264
vt 0.081064 0.395266
s 1
f 21/21/8 23/22/8 22/23/8
o model_7.511
v 10.000000 0.000001 54.108849
v 6.000000 0.000001 54.108849
v 10.000000 -0.799999 53.775517
v 6.000000 -0.799999 53.775524
vn -0.0038 0.3832 -0.9237
vt 0.809112 0.657884
vt 0.820750 0.657884
vt 0.809112 0.711597
vt 0.820750 0.711597
s 1
f 24/24/9 26/25/9 25/26/9
f 25/26/9 26/25/9 27/27/9
o model_7.512
v 10.000000 0.000001 54.442184
v 6.000000 0.000001 54.442184
v 10.000000 0.000001 54.108849
v 6.000000 0.000001 54.108849
v 2.666660 0.000001 54.108845
v 2.666660 0.000001 54.442184
v 2.333334 0.000001 54.108845
v 2.000000 0.000001 54.442184
vn -0.0000 1.0000 0.0022
vt 0.690493 0.590863
vt 0.706928 0.590863
vt 0.690493 0.787411
vt 0.706928 0.787411
vt 0.706928 0.951162
vt 0.690493 0.951162
vt 0.706928 0.967561
vt 0.690493 0.983959
s 1
f 28/28/10 30/29/10 29/30/10
f 30/29/10 31/31/10 29/30/10
f 31/31/10 32/32/10 29/30/10
f 29/30/10 32/32/10 33/33/10
f 32/32/10 34/34/10 33/33/10
f 33/33/10 34/34/10 35/35/10
o model_7.513
v 2.333334 0.000000 50.442184
v 2.333334 0.000000 46.442184
v 2.666660 -0.800000 50.442184
v 2.666667 -0.800000 46.442184
vn 0.9239 0.3827 0.0022
vn 0.9239 0.3827 0.0021
vt 0.838410 0.722529
vt 0.850047 0.722529
vt 0.838410 0.776122
vt 0.850047 0.776122
s 1
f 36/36/11 38/37/11 37/38/12
f 37/38/12 38/37/11 39/39/11
o model_7.514
v 2.333334 0.000000 46.442184
v 2.333334 0.000000 50.442184
v 2.000000 0.000000 46.442184
v 2.000000 0.000000 50.442184
v 2.000000 0.000001 53.775524
v 2.333334 0.000001 53.775524
v 2.000000 0.000001 54.442184
v 2.333334 0.000001 54.108845
vn -0.0000 1.0000 0.0022
vt 0.734082 0.957460
vt 0.717647 0.957460
vt 0.734082 0.760912
vt 0.717647 0.760912
vt 0.717647 0.597161
vt 0.734082 0.597161
vt 0.717647 0.564364
vt 0.734082 0.580763
s 1
f 40/40/13 42/41/13 41/42/13
f 42/41/13 43/43/13 41/42/13
f 43/43/13 44/44/13 41/42/13
f 41/42/13 44/44/13 45/45/13
f 44/44/13 46/46/13 45/45/13
f 45/45/13 46/46/13 47/47/13
o model_7.515
v 2.333334 0.000000 50.442184
v 2.666660 -0.800000 50.442184
v 2.333334 0.000001 53.775524
v 2.666667 -0.799999 53.775524
vn 0.9239 0.3827 -0.0022
vn 0.9239 0.3827 -0.0021
vt 0.838410 0.722529
vt 0.838410 0.677848
vt 0.850047 0.722529
vt 0.850047 0.677848
s 1
f 48/48/14 50/49/15 49/50/14
f 49/50/14 50/49/15 51/51/14
o model_7.516
v 6.000000 -0.799999 53.775524
v 6.000000 0.000001 54.108849
v 2.666667 -0.799999 53.775524
v 2.666660 0.000001 54.108845
vn 0.0038 0.3832 -0.9237
vt 0.820750 0.711597
vt 0.820750 0.756277
vt 0.809112 0.711597
vt 0.809112 0.756277
s 1
f 52/52/16 54/53/16 53/54/16
f 53/54/16 54/53/16 55/55/16
o model_7.517
v 5.700000 -0.800000 50.442184
v 5.700000 -0.800000 46.442184
v 6.000000 0.000000 50.442184
v 6.000000 0.000000 46.442184
vn -0.9350 0.3546 -0.0022
vt 0.162627 0.511721
vt 0.265117 0.511721
vt 0.162627 0.991446
vt 0.265117 0.991446
s 1
f 56/56/17 58/57/17 57/58/17
f 57/58/17 58/57/17 59/59/17
o model_7.518
v 6.048816 -0.800000 50.742184
v 10.000000 -0.800000 50.742184
v 6.000000 -0.799999 53.775524
v 10.000000 -0.799999 53.775517
vn -0.0000 1.0000 0.0022
vt 0.058810 0.812128
vt 0.058095 0.771844
vt 0.111280 0.812128
vt 0.111280 0.771844
s 1
f 60/60/18 62/61/18 61/62/18
f 61/62/18 62/61/18 63/63/18
o model_7.519
v 6.048816 -0.800000 50.742184
v 6.000000 0.000000 50.442184
v 10.000000 -0.800000 50.742184
v 10.000000 0.000000 50.442184
vn 0.0019 0.3507 0.9365
vn 0.0018 0.3507 0.9365
vt 0.161096 0.491995
vt 0.161096 0.018093
vt 0.263586 0.497818
vt 0.263586 0.018093
s 1
f 64/64/19 66/65/19 65/66/19
f 65/66/19 66/65/19 67/67/20
o model_7.520
v 10.000000 -0.800000 50.742184
v 10.000000 0.000000 50.442184
v 10.000000 -0.800000 50.722183
v 10.000000 0.000000 50.422184
vn 1.0000 -0.0000 0.0022
vt 0.594026 0.738809
vt 0.594128 0.738809
vt 0.594026 0.740473
vt 0.594128 0.740473
s 1
f 68/68/21 70/69/21 69/70/21
f 69/70/21 70/69/21 71/71/21
o model_7.521
v 10.000000 0.000000 50.442184
v 6.000000 0.000000 50.442184
v 10.000000 0.000000 50.422184
v 6.020000 0.000000 50.422184
vn -0.0000 1.0000 0.0022
vt 0.622813 0.750217
vt 0.622711 0.750217
vt 0.622813 0.742612
vt 0.622711 0.742731
s 1
f 72/72/22 74/73/22 73/74/22
f 73/74/22 74/73/22 75/75/22
o model_7.522
v 6.000000 0.000000 46.442184
v 5.700000 -0.800000 46.442184
v 6.020000 0.000000 46.442184
v 5.720000 -0.800000 46.442184
vn -0.0000 -0.0000 -1.0000
vt 0.629142 0.755683
vt 0.629244 0.755683
vt 0.629142 0.757347
vt 0.629244 0.757347
s 1
f 76/76/23 78/77/23 77/78/23
f 77/78/23 78/77/23 79/79/23
o model_7.523
v 6.000000 0.000000 50.442184
v 6.000000 0.000000 46.442184
v 6.020000 0.000000 50.422184
v 6.020000 0.000000 46.442184
vn -0.0000 1.0000 0.0022
vt 0.627713 0.744870
vt 0.629142 0.755683
vt 0.629244 0.755683
s 1
f 80/80/24 82/80/24 81/81/24
f 81/81/24 82/80/24 83/82/24
