# Blender 5.1.0
# www.blender.org
mtllib water_end.mtl
o model_7.988
v 12.000000 -0.799999 54.142185
v 12.500000 0.000001 54.442184
v 12.000000 0.000001 54.442184
vn -0.0019 0.3507 -0.9365
vn -0.0020 0.3507 -0.9365
vt 0.168407 0.936011
vt 0.256341 0.936011
vt 0.256341 0.987490
s 1
f 1/1/1 3/2/2 2/3/1
o model_7.989
v 12.000000 0.000000 50.775517
v 12.500000 0.000000 50.775517
v 12.000000 -0.800000 51.108852
vn -0.0000 0.3832 0.9236
vt 0.857474 0.962240
vt 0.850329 0.941083
vt 0.872341 0.957941
s 1
f 4/4/3 6/5/3 5/6/3
o model_7.990
v 13.000000 0.000000 50.442184
v 13.000000 0.000000 50.775517
v 12.500000 0.000000 50.442184
v 12.500000 0.000000 50.775517
v 12.000000 0.000000 50.442184
v 12.000000 0.000000 50.775517
v 11.000000 0.000000 50.442184
v 11.000000 0.000000 50.775517
v 13.000000 0.000001 54.442184
v 12.500000 0.000001 54.442184
vn -0.0000 1.0000 0.0022
vt 0.887324 0.966163
vt 0.874185 0.967652
vt 0.886632 0.957545
vt 0.872341 0.957941
vt 0.860010 0.971443
vt 0.857474 0.962240
vt 0.832811 0.978307
vt 0.830506 0.969255
vt 0.894238 0.857000
vt 0.880524 0.855963
s 1
f 7/7/4 9/8/4 8/9/4
f 9/8/4 10/10/4 8/9/4
f 9/8/4 11/11/4 10/10/4
f 10/10/4 11/11/4 12/12/4
f 11/11/4 13/13/4 12/12/4
f 12/12/4 13/13/4 14/14/4
f 8/9/4 10/10/4 15/15/4
f 10/10/4 16/16/4 15/15/4
o model_7.991
v 11.000000 0.000001 54.442184
v 11.000000 -0.799999 54.142185
v 12.000000 0.000001 54.442184
v 12.000000 -0.799999 54.142185
vn -0.0020 0.3507 -0.9365
vn -0.0019 0.3507 -0.9365
vt 0.256341 0.833033
vt 0.256341 0.936011
vt 0.168407 0.833033
vt 0.168407 0.936011
s 1
f 17/17/5 19/18/6 18/19/5
f 18/19/5 19/18/6 20/20/6
o model_7.992
v 11.000000 -0.800000 51.108852
v 11.000000 0.000000 50.775517
v 12.000000 -0.800000 51.108852
v 12.000000 0.000000 50.775517
vn -0.0000 0.3832 0.9236
vt 0.824859 0.946042
vt 0.850329 0.941083
vt 0.830506 0.969255
vt 0.857474 0.962240
s 1
f 21/21/7 23/22/7 22/23/7
f 22/23/7 23/22/7 24/24/7
o model_7.993
v 11.000000 -0.799999 54.142185
v 11.000000 -0.800000 51.108852
v 12.000000 -0.799999 54.142185
v 12.000000 -0.800000 51.108852
vn -0.0000 1.0000 0.0022
vt 0.018469 0.915287
vt 0.033566 0.915287
vt 0.019506 0.957715
vt 0.032529 0.955169
s 1
f 25/25/8 27/26/8 26/27/8
f 26/27/8 27/26/8 28/28/8
o model_7.994
v 12.000000 -0.799999 54.142185
v 12.000000 -0.800000 51.108852
v 12.500000 0.000001 54.442184
v 12.500000 0.000000 50.775517
vn -0.8479 0.5302 0.0022
vn -0.8479 0.5302 0.0021
vt 0.852288 0.863129
vt 0.880524 0.855963
vt 0.850329 0.941083
vt 0.872341 0.957941
s 1
f 29/29/9 31/30/10 30/31/10
f 30/31/10 31/30/10 32/32/9
o model_7.995
v 12.500000 0.000001 54.442184
v 13.000000 0.000001 54.442184
v 12.500000 0.000001 54.462185
v 13.000000 0.000001 54.462185
vn -0.0000 1.0000 0.0022
vt 0.893777 0.889019
vt 0.893893 0.886266
vt 0.962235 0.894167
vt 0.962465 0.891433
s 1
f 33/33/11 35/34/11 34/35/11
f 34/35/11 35/34/11 36/36/11
o model_7.996
v 12.500000 0.000001 54.462185
v 12.000000 0.000001 54.462185
v 12.500000 0.000001 54.442184
v 12.000000 0.000001 54.442184
v 11.000000 0.000001 54.462185
v 11.000000 0.000001 54.442184
vn -0.0000 1.0000 0.0022
vt 0.204825 0.938047
vt 0.204825 0.938179
vt 0.201252 0.937764
vt 0.201252 0.937915
vt 0.194107 0.937236
vt 0.194107 0.937387
s 1
f 37/37/12 39/38/12 38/39/12
f 39/38/12 40/40/12 38/39/12
f 38/39/12 40/40/12 41/41/12
f 40/40/12 42/42/12 41/41/12
o model_7.997
v 11.000000 -0.799999 54.142185
v 11.000000 0.000001 54.442184
v 11.000000 -0.799999 54.162186
v 11.000000 0.000001 54.462185
vn -1.0000 -0.0000 -0.0022
vt 0.188229 0.939084
vt 0.188229 0.938952
vt 0.194107 0.937387
vt 0.194107 0.937236
s 1
f 43/43/13 45/44/13 44/45/13
f 45/44/13 46/46/13 44/45/13
